{"title":"Harvey-720p MP4 AAC x264 BRRip 1950-CC","uid":7672193,"size":2665440317,"categoryP":"video","categoryS":"hd___movies","magnet":"?xt=urn:btih:2f36e7a7bf1461c39e3d0102c86894ad611c2c70&amp;dn=Harvey-720p+MP4+AAC+x264+BRRip+1950-CC&amp;tr=udp%3A%2F%2Ftracker.openbittorrent.com%3A80&amp;tr=udp%3A%2F%2Fopen.demonii.com%3A1337&amp;tr=udp%3A%2F%2Ftracker.coppersurfer.tk%3A6969&amp;tr=udp%3A%2F%2Fexodus.desync.com%3A6969","seeders":1,"leechers":0,"uploader":"Caveman44","files":-1,"time":1348605777,"description":" &lt;a href=&quot;http://www.imdb.com/title/tt0042546/&quot; rel=&quot;nofollow&quot; target=&quot;_NEW&quot;&gt;http://www.imdb.com/title/tt0042546/&lt;/a&gt;\n\nSource: Harvey.1950.720p.BluRay.X264-AMIABLE Thanks!\n\nSubs: Danish, Dutch, English, Greek, Hungarian and Turkish.\n\nSample and Screens included.\n\nGeneral\nComplete name                            : Harvey-720p MP4 AAC x264 BRRip 1950-CC.mp4\nFormat                                   : MPEG-4\nFormat profile                           : Base Media\nCodec ID                                 : isom\nFile size                                : 2.46 GiB\nDuration                                 : 1h 44mn\nOverall bit rate mode                    : Variable\nOverall bit rate                         : 3 368 Kbps\nEncoded date                             : UTC 2012-09-17 17:42:33\n\nVideo\nID                                       : 1\nFormat                                   : AVC\nFormat/Info                              : Advanced Video Codec\nFormat profile                           : &lt;a class=&quot;__cf_email__&quot; href=&quot;/cdn-cgi/l/email-protection&quot; data-cfemail=&quot;763e1f111e363a455847&quot;&gt;[email&amp;#160;protected]&lt;/a&gt;&lt;script cf-hash='f9e31' type=&quot;text/javascript&quot;&gt;\n/* &lt;![CDATA[ */!function(){try{var t=&quot;currentScript&quot;in document?document.currentScript:function(){for(var t=document.getElementsByTagName(&quot;script&quot;),e=t.length;e--;)if(t[e].getAttribute(&quot;cf-hash&quot;))return t[e]}();if(t&amp;&amp;t.previousSibling){var e,r,n,i,c=t.previousSibling,a=c.getAttribute(&quot;data-cfemail&quot;);if(a){for(e=&quot;&quot;,r=parseInt(a.substr(0,2),16),n=2;a.length-n;n+=2)i=parseInt(a.substr(n,2),16)^r,e+=String.fromCharCode(i);e=document.createTextNode(e),c.parentNode.replaceChild(e,c)}}}catch(u){}}();/* ]]&gt; */&lt;/script&gt;\nFormat settings, CABAC                   : Yes\nFormat settings, ReFrames                : 5 frames\nCodec ID                                 : avc1\nCodec ID/Info                            : Advanced Video Coding\nDuration                                 : 1h 44mn\nBit rate                                 : 3 212 Kbps\nMaximum bit rate                         : 17.7 Mbps\nWidth                                    : 976 pixels\nHeight                                   : 720 pixels\nDisplay aspect ratio                     : 4:3\nFrame rate mode                          : Variable\nFrame rate                               : 23.976 fps\nMinimum frame rate                       : 19.048 fps\nMaximum frame rate                       : 25.000 fps\nColor space                              : YUV\nChroma subsampling                       : 4:2:0\nBit depth                                : 8 bits\nScan type                                : Progressive\nBits/(Pixel*Frame)                       : 0.191\nStream size                              : 2.33 GiB (95%)\nWriting library                          : x264 core 112\n\nAudio\nID                                       : 2\nFormat                                   : AAC\nFormat/Info                              : Advanced Audio Codec\nFormat profile                           : LC\nCodec ID                                 : 40\nDuration                                 : 1h 44mn\nBit rate mode                            : Variable\nBit rate                                 : 172 Kbps\nMaximum bit rate                         : 211 Kbps\nChannel(s)                               : 2 channels\nChannel positions                        : Front: L R\nSampling rate                            : 48.0 KHz\nCompression mode                         : Lossy\nDelay relative to video                  : 83ms\nStream size                              : 128 MiB (5%)\nLanguage                                 : English\n\nEnjoy...\n\nRequested by\n\nComing soon: Batman Begins, The Dark Knight, The Taking Of Pelham 123, Starsky and Hutch and more...","torrent":{"xt":"urn:btih:2f36e7a7bf1461c39e3d0102c86894ad611c2c70","amp;dn":"Harvey-720p+MP4+AAC+x264+BRRip+1950-CC","amp;tr":["udp%3A%2F%2Ftracker.openbittorrent.com%3A80","udp%3A%2F%2Fopen.demonii.com%3A1337","udp%3A%2F%2Ftracker.coppersurfer.tk%3A6969","udp%3A%2F%2Fexodus.desync.com%3A6969"],"infoHash":"2f36e7a7bf1461c39e3d0102c86894ad611c2c70","infoHashBuffer":{"type":"Buffer","data":[47,54,231,167,191,20,97,195,158,61,1,2,200,104,148,173,97,28,44,112]},"announce":[],"urlList":[]}}